<svg width="232" height="308" viewBox="0 0 232 308" fill="none" xmlns="http://www.w3.org/2000/svg">
<g clip-path="url(#clip0_450_596)">
<g opacity="0.11">
<mask id="mask0_450_596" style="mask-type:alpha" maskUnits="userSpaceOnUse" x="-354" y="0" width="586" height="308">
<rect x="-354" width="586" height="308" rx="12" fill="#002047"/>
</mask>
<g mask="url(#mask0_450_596)">
<path d="M212.329 -10.7707C183.119 -18.4134 152.764 -13.524 125.523 -3.35452C147.701 -9.30935 171.104 -9.31915 194.267 -3.25858C272.406 17.1864 306.808 98.287 284.017 185.395C261.226 272.502 191.538 326.368 113.372 305.916C90.1829 299.849 69.0915 291.023 52.6794 274.943C71.4491 297.152 96.2304 313.669 125.441 321.312C207.708 342.837 293.859 285.958 317.848 194.274C341.837 102.591 294.583 10.8072 212.315 -10.7178L212.329 -10.7707Z" fill="url(#paint0_linear_450_596)"/>
<path d="M155.335 22.6172C169.463 20.8023 184 21.6099 198.381 25.3728C241.29 36.5997 273.817 66.138 285.383 109.326C274.408 59.3683 239.674 18.5123 190.928 5.75823C162.875 -1.58186 134.291 1.48134 108.606 12.68L155.362 22.6241L155.335 22.6172Z" fill="url(#paint1_linear_450_596)"/>
<path d="M130.718 283.97C100.351 276.024 75.8867 256.255 60.0676 230.071C56.0288 223.389 56.4496 222.962 53.5801 215.57C53.5801 215.57 41.9989 233.85 45.197 250.401C62.3045 274.775 84.8636 289.693 114.6 297.473C163.371 310.234 213.638 291.619 247.675 253.438C216.412 285.42 173.619 295.223 130.711 283.996L130.718 283.97Z" fill="url(#paint2_linear_450_596)"/>
<path d="M113.913 34.4939C113.913 34.4939 111.208 87.8821 59.395 115.844C30.2437 131.166 -4.25604 148.142 21.5497 213.031C-4.46003 172.649 -13.0928 127.911 54.8013 91.6358C88.3384 68.7841 97.199 67.3435 113.886 34.487L113.913 34.4939Z" fill="url(#paint3_linear_450_596)"/>
<path d="M64.1287 114.266C64.1287 114.266 90.3337 151.109 58.3182 199.711C39.5056 229.524 27.342 245.306 61.1973 276.747C43.7039 266.517 7.03028 247.566 37.6041 197.174C52.8336 171.822 67.3701 159.317 64.0955 114.285L64.1287 114.266Z" fill="url(#paint4_linear_450_596)"/>
<path d="M71.9463 18.375C92.4564 11.2773 101.373 17.0302 115.48 18.5166C126.39 19.8731 128.821 20.0288 149.881 24.4651C136.171 28.2264 131.929 30.4799 113.956 31.3169C77.8553 34.3353 37.5148 29.2916 40.8337 92.0847C30.2618 69.7887 35.2577 31.0469 71.92 18.3681L71.9463 18.375Z" fill="url(#paint5_linear_450_596)"/>
<path d="M87.9844 37.5847L99.6642 48.6675C100.402 47.6735 101.073 46.7185 101.718 45.7568L93.0297 37.5199C91.7179 37.4876 89.977 37.4843 87.9844 37.5847Z" fill="url(#paint6_linear_450_596)"/>
<path d="M85.7026 63.9238C86.5564 63.1298 87.4172 62.3092 88.2517 61.4818L68.0593 42.3496C66.9383 42.8759 65.8562 43.4689 64.7671 44.0884L85.6832 63.8905L85.7026 63.9238Z" fill="url(#paint7_linear_450_596)"/>
<path d="M71.1247 76.1603C72.0436 75.4397 72.9888 74.7261 73.9479 73.9596L53.4164 54.5125C52.7051 55.5134 52.0795 56.5085 51.4996 57.5438L71.151 76.1671L71.1247 76.1603Z" fill="url(#paint8_linear_450_596)"/>
<path d="M58.3519 85.3709L47.2075 74.7109L46.1624 78.7052L55.3267 87.3775C56.1446 86.8284 57.188 86.1687 58.3519 85.3709Z" fill="url(#paint9_linear_450_596)"/>
<path d="M40.9268 128.873C40.1048 129.76 39.2288 130.746 38.2725 131.824L59.9128 145.852C60.2588 144.53 60.6118 143.181 60.9122 141.818L40.9268 128.873Z" fill="#43B749"/>
<path d="M52.9798 165.467C53.5348 164.312 54.0773 163.097 54.6005 161.849L27.8445 144.504C27.1124 145.585 26.4259 146.705 25.7851 147.866L52.9729 165.493L52.9798 165.467Z" fill="#43B749"/>
<path d="M43.2684 181.12C43.9742 180.033 44.7063 178.953 45.4454 177.846L20.9199 161.961C20.6652 163.364 20.463 164.781 20.2803 166.231L43.2684 181.12Z" fill="#43B749"/>
<path d="M33.3994 196.825C33.9862 195.763 34.6726 194.643 35.3868 193.417L20.9032 184.031L20.6499 184.784C20.8559 186.251 21.0759 187.665 21.3428 189.007L33.4257 196.832L33.3994 196.825Z" fill="#43B749"/>
</g>
</g>
</g>
<defs>
<linearGradient id="paint0_linear_450_596" x1="89.4377" y1="134.455" x2="317.862" y2="194.222" gradientUnits="userSpaceOnUse">
<stop stop-color="#39B54A"/>
<stop offset="1" stop-color="#8DC63F"/>
</linearGradient>
<linearGradient id="paint1_linear_450_596" x1="105.895" y1="22.9366" x2="295.038" y2="72.4255" gradientUnits="userSpaceOnUse">
<stop stop-color="#00BBFF"/>
<stop offset="1" stop-color="#002047"/>
</linearGradient>
<linearGradient id="paint2_linear_450_596" x1="44.4395" y1="239.661" x2="-410.068" y2="120.74" gradientUnits="userSpaceOnUse">
<stop stop-color="#00BBFF"/>
<stop offset="1" stop-color="#002047"/>
</linearGradient>
<linearGradient id="paint3_linear_450_596" x1="13.4252" y1="109.554" x2="90.2764" y2="129.661" gradientUnits="userSpaceOnUse">
<stop stop-color="#39B54A"/>
<stop offset="1" stop-color="#8DC63F"/>
</linearGradient>
<linearGradient id="paint4_linear_450_596" x1="35.7532" y1="188.465" x2="81.1856" y2="200.353" gradientUnits="userSpaceOnUse">
<stop stop-color="#00BBFF"/>
<stop offset="1" stop-color="#002047"/>
</linearGradient>
<linearGradient id="paint5_linear_450_596" x1="40.5913" y1="43.9455" x2="138.134" y2="69.4673" gradientUnits="userSpaceOnUse">
<stop stop-color="#00BBFF"/>
<stop offset="1" stop-color="#002047"/>
</linearGradient>
<linearGradient id="paint6_linear_450_596" x1="87.1746" y1="40.6797" x2="102.029" y2="44.5664" gradientUnits="userSpaceOnUse">
<stop stop-color="#1C75BC"/>
<stop offset="1" stop-color="#002047"/>
</linearGradient>
<linearGradient id="paint7_linear_450_596" x1="63.3537" y1="49.5974" x2="89.5667" y2="56.4559" gradientUnits="userSpaceOnUse">
<stop stop-color="#1C75BC"/>
<stop offset="1" stop-color="#002047"/>
</linearGradient>
<linearGradient id="paint8_linear_450_596" x1="50.2552" y1="62.1926" x2="75.3114" y2="68.7484" gradientUnits="userSpaceOnUse">
<stop stop-color="#1C75BC"/>
<stop offset="1" stop-color="#002047"/>
</linearGradient>
<linearGradient id="paint9_linear_450_596" x1="45.9202" y1="79.6311" x2="58.9609" y2="83.0431" gradientUnits="userSpaceOnUse">
<stop stop-color="#1C75BC"/>
<stop offset="1" stop-color="#002047"/>
</linearGradient>
<clipPath id="clip0_450_596">
<rect width="232" height="308" fill="white"/>
</clipPath>
</defs>
</svg>
