<svg width="359" height="414" viewBox="0 0 359 414" fill="none" xmlns="http://www.w3.org/2000/svg">
<g opacity="0.11">
<path d="M335.13 60.4408C295.741 49.1753 254.57 54.3347 217.513 66.5645C247.638 59.6632 279.311 60.6275 310.545 69.5608C415.913 99.6968 460.953 207.734 428.478 321.28C396.004 434.825 300.684 502.718 195.281 472.572C164.011 463.629 135.632 451.148 113.721 429.327C138.708 459.301 171.937 482.047 211.325 493.313C322.259 525.041 439.916 453.875 474.097 334.364C508.278 214.854 446.044 92.2377 335.11 60.5098L335.13 60.4408Z" fill="url(#paint0_linear_35_686)"/>
<path d="M257.367 101.948C276.52 100.153 296.179 101.821 315.572 107.368C373.432 123.916 416.899 164.1 431.745 221.352C417.826 155.227 371.583 100.074 305.852 81.2745C268.023 70.4552 229.282 73.2881 194.312 86.9355L257.402 101.959L257.367 101.948Z" fill="url(#paint1_linear_35_686)"/>
<path d="M219.163 444.451C178.214 432.74 145.475 405.733 124.556 370.655C119.215 361.704 119.793 361.16 116.048 351.324C116.048 351.324 100.032 374.868 104.051 396.757C126.747 429.508 156.998 450.06 197.096 461.528C262.862 480.338 331.24 457.967 378.017 409.202C335.109 449.935 277.013 461.034 219.153 444.486L219.163 444.451Z" fill="url(#paint2_linear_35_686)"/>
<path d="M201.078 115.84C201.078 115.84 196.42 185.902 125.774 220.493C86.0357 239.416 39.0277 260.288 72.7376 346.659C38.293 292.493 27.447 233.327 120.01 188.481C165.826 159.844 177.844 158.321 201.043 115.83L201.078 115.84Z" fill="url(#paint3_linear_35_686)"/>
<path d="M132.223 218.606C132.223 218.606 166.998 268.129 122.76 330.676C96.7421 369.078 79.9852 389.315 125.215 432.055C101.732 417.878 52.4539 391.437 94.774 326.477C115.859 293.788 135.766 277.959 132.177 218.631L132.223 218.606Z" fill="url(#paint4_linear_35_686)"/>
<path d="M144.589 92.8921C172.479 84.419 184.439 92.3531 203.502 94.8958C218.241 97.1344 221.529 97.4406 249.947 104.151C231.323 108.523 225.54 111.308 201.201 111.657C152.287 114.118 97.7865 105.804 101.103 188.479C87.2128 158.732 94.6989 108.017 144.553 92.8819L144.589 92.8921Z" fill="url(#paint5_linear_35_686)"/>
<path d="M165.941 118.809L181.541 133.864C182.557 132.588 183.484 131.361 184.375 130.124L172.77 118.934C170.996 118.837 168.64 118.76 165.941 118.809Z" fill="url(#paint6_linear_35_686)"/>
<path d="M162.357 153.332C163.527 152.323 164.708 151.281 165.853 150.228L138.883 124.237C137.356 124.882 135.881 125.616 134.395 126.385L162.331 153.287L162.357 153.332Z" fill="url(#paint7_linear_35_686)"/>
<path d="M142.397 168.81C143.654 167.902 144.947 167.003 146.259 166.036L118.837 139.617C117.855 140.902 116.99 142.184 116.186 143.521L142.433 168.821L142.397 168.81Z" fill="url(#paint8_linear_35_686)"/>
<path d="M124.936 180.379L110.053 165.902L108.564 171.108L120.805 182.89C121.922 182.203 123.346 181.379 124.936 180.379Z" fill="url(#paint9_linear_35_686)"/>
<path d="M100.541 236.848C99.4115 237.98 98.2075 239.239 96.8931 240.616L125.918 259.959C126.411 258.235 126.914 256.476 127.346 254.698L100.541 236.848Z" fill="#43B749"/>
<path d="M116.173 285.447C116.946 283.952 117.703 282.378 118.434 280.759L82.5484 256.843C81.5374 258.233 80.5873 259.677 79.6984 261.176L116.163 285.481L116.173 285.447Z" fill="#43B749"/>
<path d="M102.732 305.625C103.707 304.225 104.718 302.836 105.739 301.412L72.8448 279.508C72.4738 281.341 72.1738 283.195 71.8993 285.094L102.732 305.625Z" fill="#43B749"/>
<path d="M89.0835 325.854C89.8975 324.483 90.8475 323.039 91.8369 321.456L72.4111 308.515L72.0542 309.495C72.3057 311.432 72.5768 313.3 72.913 315.074L89.1189 325.864L89.0835 325.854Z" fill="#43B749"/>
</g>
<defs>
<linearGradient id="paint0_linear_35_686" x1="166.097" y1="246.199" x2="474.117" y2="334.295" gradientUnits="userSpaceOnUse">
<stop stop-color="#39B54A"/>
<stop offset="1" stop-color="#8DC63F"/>
</linearGradient>
<linearGradient id="paint1_linear_35_686" x1="190.45" y1="100.304" x2="445.502" y2="173.251" gradientUnits="userSpaceOnUse">
<stop stop-color="#00BBFF"/>
<stop offset="1" stop-color="#002047"/>
</linearGradient>
<linearGradient id="paint2_linear_35_686" x1="103.226" y1="382.608" x2="-509.657" y2="207.318" gradientUnits="userSpaceOnUse">
<stop stop-color="#00BBFF"/>
<stop offset="1" stop-color="#002047"/>
</linearGradient>
<linearGradient id="paint3_linear_35_686" x1="63.6788" y1="210.305" x2="167.309" y2="239.944" gradientUnits="userSpaceOnUse">
<stop stop-color="#39B54A"/>
<stop offset="1" stop-color="#8DC63F"/>
</linearGradient>
<linearGradient id="paint4_linear_35_686" x1="92.4322" y1="314.952" x2="153.696" y2="332.474" gradientUnits="userSpaceOnUse">
<stop stop-color="#00BBFF"/>
<stop offset="1" stop-color="#002047"/>
</linearGradient>
<linearGradient id="paint5_linear_35_686" x1="101.676" y1="125.194" x2="233.208" y2="162.813" gradientUnits="userSpaceOnUse">
<stop stop-color="#00BBFF"/>
<stop offset="1" stop-color="#002047"/>
</linearGradient>
<linearGradient id="paint6_linear_35_686" x1="164.787" y1="122.843" x2="184.818" y2="128.572" gradientUnits="userSpaceOnUse">
<stop stop-color="#1C75BC"/>
<stop offset="1" stop-color="#002047"/>
</linearGradient>
<linearGradient id="paint7_linear_35_686" x1="132.379" y1="133.567" x2="167.726" y2="143.677" gradientUnits="userSpaceOnUse">
<stop stop-color="#1C75BC"/>
<stop offset="1" stop-color="#002047"/>
</linearGradient>
<linearGradient id="paint8_linear_35_686" x1="114.415" y1="149.58" x2="148.202" y2="159.243" gradientUnits="userSpaceOnUse">
<stop stop-color="#1C75BC"/>
<stop offset="1" stop-color="#002047"/>
</linearGradient>
<linearGradient id="paint9_linear_35_686" x1="108.219" y1="172.315" x2="125.804" y2="177.345" gradientUnits="userSpaceOnUse">
<stop stop-color="#1C75BC"/>
<stop offset="1" stop-color="#002047"/>
</linearGradient>
</defs>
</svg>
