<?xml version="1.0" encoding="UTF-8" standalone="no"?>
<svg
   xmlns:dc="http://purl.org/dc/elements/1.1/"
   xmlns:cc="http://creativecommons.org/ns#"
   xmlns:rdf="http://www.w3.org/1999/02/22-rdf-syntax-ns#"
   xmlns:svg="http://www.w3.org/2000/svg"
   xmlns="http://www.w3.org/2000/svg"
   viewBox="0 0 266.66666 266.66666"
   height="266.66666"
   width="266.66666"
   xml:space="preserve"
   id="svg2"
   version="1.1"><metadata
     id="metadata8"><rdf:RDF><cc:Work
         rdf:about=""><dc:format>image/svg+xml</dc:format><dc:type
           rdf:resource="http://purl.org/dc/dcmitype/StillImage" /></cc:Work></rdf:RDF></metadata><defs
     id="defs6"><linearGradient
       id="linearGradient34"
       spreadMethod="pad"
       gradientTransform="matrix(136.96558,0,0,-136.96558,53.678425,99.848213)"
       gradientUnits="userSpaceOnUse"
       y2="0"
       x2="1"
       y1="0"
       x1="0"><stop
         id="stop28"
         offset="0"
         style="stop-opacity:1;stop-color:#00bbff" /><stop
         id="stop30"
         offset="0.69876524"
         style="stop-opacity:1;stop-color:#00bbff" /><stop
         id="stop32"
         offset="1"
         style="stop-opacity:1;stop-color:#004060" /></linearGradient><linearGradient
       id="linearGradient54"
       spreadMethod="pad"
       gradientTransform="matrix(113.40829,0,0,-113.40829,46.538628,164.46841)"
       gradientUnits="userSpaceOnUse"
       y2="0"
       x2="1"
       y1="0"
       x1="0"><stop
         id="stop50"
         offset="0"
         style="stop-opacity:1;stop-color:#00bbff" /><stop
         id="stop52"
         offset="1"
         style="stop-opacity:1;stop-color:#002047" /></linearGradient><linearGradient
       id="linearGradient74"
       spreadMethod="pad"
       gradientTransform="matrix(116.07327,0,0,-116.07327,43.87365,34.607185)"
       gradientUnits="userSpaceOnUse"
       y2="0"
       x2="1"
       y1="0"
       x1="0"><stop
         id="stop70"
         offset="0"
         style="stop-opacity:1;stop-color:#00bbff" /><stop
         id="stop72"
         offset="1"
         style="stop-opacity:1;stop-color:#002047" /></linearGradient><linearGradient
       id="linearGradient94"
       spreadMethod="pad"
       gradientTransform="matrix(46.085438,0,0,-46.085438,7.3559923,102.6498)"
       gradientUnits="userSpaceOnUse"
       y2="0"
       x2="1"
       y1="0"
       x1="0"><stop
         id="stop90"
         offset="0"
         style="stop-opacity:1;stop-color:#002047" /><stop
         id="stop92"
         offset="1"
         style="stop-opacity:1;stop-color:#00bbff" /></linearGradient><linearGradient
       id="linearGradient114"
       spreadMethod="pad"
       gradientTransform="matrix(27.252602,0,0,-27.252602,31.47612,61.896713)"
       gradientUnits="userSpaceOnUse"
       y2="0"
       x2="1"
       y1="0"
       x1="0"><stop
         id="stop110"
         offset="0"
         style="stop-opacity:1;stop-color:#00bbff" /><stop
         id="stop112"
         offset="1"
         style="stop-opacity:1;stop-color:#002047" /></linearGradient><linearGradient
       id="linearGradient134"
       spreadMethod="pad"
       gradientTransform="matrix(58.476509,0,0,-58.476509,12.975143,143.21613)"
       gradientUnits="userSpaceOnUse"
       y2="0"
       x2="1"
       y1="0"
       x1="0"><stop
         id="stop130"
         offset="0"
         style="stop-opacity:1;stop-color:#00bbff" /><stop
         id="stop132"
         offset="1"
         style="stop-opacity:1;stop-color:#002047" /></linearGradient><linearGradient
       id="linearGradient154"
       spreadMethod="pad"
       gradientTransform="matrix(8.9151192,0,0,-8.9151192,38.635895,151.83719)"
       gradientUnits="userSpaceOnUse"
       y2="0"
       x2="1"
       y1="0"
       x1="0"><stop
         id="stop150"
         offset="0"
         style="stop-opacity:1;stop-color:#1c75bc" /><stop
         id="stop152"
         offset="1"
         style="stop-opacity:1;stop-color:#002047" /></linearGradient><linearGradient
       id="linearGradient174"
       spreadMethod="pad"
       gradientTransform="matrix(15.723325,0,0,-15.723325,26.576458,143.37975)"
       gradientUnits="userSpaceOnUse"
       y2="0"
       x2="1"
       y1="0"
       x1="0"><stop
         id="stop170"
         offset="0"
         style="stop-opacity:1;stop-color:#1c75bc" /><stop
         id="stop172"
         offset="1"
         style="stop-opacity:1;stop-color:#002047" /></linearGradient><linearGradient
       id="linearGradient194"
       spreadMethod="pad"
       gradientTransform="matrix(15.019222,0,0,-15.019222,21.078724,134.44423)"
       gradientUnits="userSpaceOnUse"
       y2="0"
       x2="1"
       y1="0"
       x1="0"><stop
         id="stop190"
         offset="0"
         style="stop-opacity:1;stop-color:#1c75bc" /><stop
         id="stop192"
         offset="1"
         style="stop-opacity:1;stop-color:#002047" /></linearGradient><linearGradient
       id="linearGradient214"
       spreadMethod="pad"
       gradientTransform="matrix(7.8198156,0,0,-7.8198156,21.196506,124.08495)"
       gradientUnits="userSpaceOnUse"
       y2="0"
       x2="1"
       y1="0"
       x1="0"><stop
         id="stop210"
         offset="0"
         style="stop-opacity:1;stop-color:#1c75bc" /><stop
         id="stop212"
         offset="1"
         style="stop-opacity:1;stop-color:#002047" /></linearGradient><linearGradient
       id="linearGradient234"
       spreadMethod="pad"
       gradientTransform="matrix(14.209516,0,0,-14.209516,24.571037,92.528397)"
       gradientUnits="userSpaceOnUse"
       y2="0"
       x2="1"
       y1="0"
       x1="0"><stop
         id="stop230"
         offset="0"
         style="stop-opacity:1;stop-color:#1c75bc" /><stop
         id="stop232"
         offset="1"
         style="stop-opacity:1;stop-color:#002047" /></linearGradient><linearGradient
       id="linearGradient254"
       spreadMethod="pad"
       gradientTransform="matrix(18.229082,0,0,-18.229082,19.930365,81.25444)"
       gradientUnits="userSpaceOnUse"
       y2="0"
       x2="1"
       y1="0"
       x1="0"><stop
         id="stop250"
         offset="0"
         style="stop-opacity:1;stop-color:#1c75bc" /><stop
         id="stop252"
         offset="1"
         style="stop-opacity:1;stop-color:#002047" /></linearGradient><linearGradient
       id="linearGradient274"
       spreadMethod="pad"
       gradientTransform="matrix(16.100914,0,0,-16.100914,19.251665,70.791847)"
       gradientUnits="userSpaceOnUse"
       y2="0"
       x2="1"
       y1="0"
       x1="0"><stop
         id="stop270"
         offset="0"
         style="stop-opacity:1;stop-color:#1c75bc" /><stop
         id="stop272"
         offset="1"
         style="stop-opacity:1;stop-color:#002047" /></linearGradient><linearGradient
       id="linearGradient294"
       spreadMethod="pad"
       gradientTransform="matrix(9.5483656,0,0,-9.5483656,22.459198,59.529213)"
       gradientUnits="userSpaceOnUse"
       y2="0"
       x2="1"
       y1="0"
       x1="0"><stop
         id="stop290"
         offset="0"
         style="stop-opacity:1;stop-color:#1c75bc" /><stop
         id="stop292"
         offset="1"
         style="stop-opacity:1;stop-color:#002047" /></linearGradient><clipPath
       id="clipPath304"
       clipPathUnits="userSpaceOnUse"><path
         id="path302"
         d="M 0,200 H 200 V 0 H 0 Z" /></clipPath></defs><g
     transform="matrix(1.3333333,0,0,-1.3333333,0,266.66667)"
     id="g10"><text
       id="text14"
       style="font-variant:normal;font-weight:normal;font-stretch:normal;font-size:100.17369843px;font-family:'Helvetica World';-inkscape-font-specification:HelveticaWorld-Regular;writing-mode:lr-tb;fill:#ffffff;fill-opacity:1;fill-rule:nonzero;stroke:none"
       transform="matrix(0.95874965,0,0,-1,68.1494,67.0771)"><tspan
         id="tspan12"
         y="0"
         x="0">N</tspan></text>
<g
       id="g16"><g
         id="g18"><g
           id="g24"><g
             id="g26"><path
               id="path36"
               style="fill:url(#linearGradient34);stroke:none"
               d="m 53.693,181.99 c 11.58,6.564 24.699,9.986 38.599,9.986 v 0 c 46.858,0 78.064,-40.222 78.064,-92.128 v 0 C 170.356,47.942 139.15,7.723 92.292,7.723 v 0 c -13.906,0 -27.031,1.849 -38.613,8.418 v 0 C 67.467,6.492 83.802,0.903 101.318,0.903 v 0 c 49.331,0 89.326,44.299 89.326,98.945 v 0 c 0,54.647 -39.995,98.946 -89.326,98.946 v 0 c -17.51,0 -33.839,-7.162 -47.625,-16.804" /></g></g></g></g><g
       id="g38"><g
         id="g40"><g
           id="g46"><g
             id="g48"><path
               id="path56"
               style="fill:url(#linearGradient54);stroke:none"
               d="m 46.539,170.582 27.696,1.279 v -0.002 c 7.667,3.067 15.933,4.743 24.556,4.743 v 0 c 25.73,0 48.312,-11.726 61.156,-34.127 v 0 c -13.502,26.264 -38.985,43.988 -68.223,43.988 v 0 c -16.829,0 -32.41,-5.886 -45.185,-15.881" /></g></g></g></g><g
       id="g58"><g
         id="g60"><g
           id="g66"><g
             id="g68"><path
               id="path76"
               style="fill:url(#linearGradient74);stroke:none"
               d="m 98.791,22.477 c -18.211,0 -34.841,7.462 -47.566,19.758 v 0 c -3.241,3.133 -3.075,3.43 -5.771,7.148 v 0 l -10e-4,-0.002 c 0,0 -3.816,-11.887 0.416,-20.645 v 0 C 59.044,17.638 73.896,12.614 91.724,12.614 v 0 c 29.238,0 54.721,17.722 68.223,43.986 v 0 C 147.103,34.203 124.521,22.477 98.791,22.477" /></g></g></g></g><g
       id="g78"><g
         id="g80"><g
           id="g86"><g
             id="g88"><path
               id="path96"
               style="fill:url(#linearGradient94);stroke:none"
               d="M 27.964,118.688 C -4.823,88.542 6.59,64.846 27.123,46.118 v 0 c -24.021,32.43 -7.15,46.933 6.961,59.73 v 0 c 24.962,23.165 18.643,53.334 18.643,53.334 v 0 C 48.191,138.425 43.435,136.337 27.964,118.688" /></g></g></g></g><g
       id="g98"><g
         id="g100"><g
           id="g106"><g
             id="g108"><path
               id="path116"
               style="fill:url(#linearGradient114);stroke:none"
               d="M 33.806,57.316 C 24.044,24.737 47.402,19.531 58.729,16.372 v 0 C 35.114,28.965 39.62,39.551 45.798,58.919 v 0 c 10.833,31.778 -9.291,48.503 -9.291,48.503 v 0 C 44.946,82.77 38.638,73.68 33.806,57.316" /></g></g></g></g><g
       id="g118"><g
         id="g120"><g
           id="g126"><g
             id="g128"><path
               id="path136"
               style="fill:url(#linearGradient134);stroke:none"
               d="m 51.269,168.335 c -8.133,-1.239 -13.982,0.666 -24.456,-6.28 v 0 C 8.087,149.635 10.975,127.291 20.185,116.401 v 0 C 9.098,150.95 32.47,154.013 52.294,160.972 v 0 c 9.967,3.081 12.023,4.959 19.158,9.06 v 0 C 58.974,169.44 57.598,169.166 51.269,168.335" /></g></g></g></g><g
       id="g138"><g
         id="g140"><g
           id="g146"><g
             id="g148"><path
               id="path156"
               style="fill:url(#linearGradient154);stroke:none"
               d="m 38.636,153.683 8.188,-4.472 c 0.265,0.656 0.507,1.3 0.727,1.93 v 0 l -6.087,3.322 c -0.743,-0.169 -1.713,-0.42 -2.828,-0.78" /></g></g></g></g><g
       id="g158"><g
         id="g160"><g
           id="g166"><g
             id="g168"><path
               id="path176"
               style="fill:url(#linearGradient174);stroke:none"
               d="m 26.576,146.649 14.645,-7.994 c 0.366,0.571 0.724,1.15 1.079,1.732 v 0 l -14.137,7.718 c -0.547,-0.457 -1.078,-0.942 -1.587,-1.456" /></g></g></g></g><g
       id="g178"><g
         id="g180"><g
           id="g186"><g
             id="g188"><path
               id="path196"
               style="fill:url(#linearGradient194);stroke:none"
               d="m 21.079,137.217 13.762,-7.519 c 0.416,0.53 0.834,1.076 1.257,1.635 v 0 l -14.383,7.857 c -0.247,-0.654 -0.458,-1.309 -0.636,-1.973" /></g></g></g></g><g
       id="g198"><g
         id="g200"><g
           id="g206"><g
             id="g208"><path
               id="path216"
               style="fill:url(#linearGradient214);stroke:none"
               d="m 21.197,124.639 6.41,-3.496 c 0.385,0.423 0.862,0.947 1.409,1.564 v 0 l -7.819,4.321 z" /></g></g></g></g><g
       id="g218"><g
         id="g220"><g
           id="g226"><g
             id="g228"><path
               id="path236"
               style="fill:url(#linearGradient234);stroke:none"
               d="M 24.571,93.846 38.78,89.177 c 0,0.793 -0.014,1.598 -0.037,2.398 v 0 L 25.624,95.88 C 25.3,95.267 24.948,94.594 24.571,93.846" /></g></g></g></g><g
       id="g238"><g
         id="g240"><g
           id="g246"><g
             id="g248"><path
               id="path256"
               style="fill:url(#linearGradient254);stroke:none"
               d="m 19.93,83.096 17.845,-5.858 c 0.142,0.725 0.27,1.481 0.384,2.263 v 0 l -17.567,5.77 C 20.338,84.565 20.119,83.84 19.93,83.096" /></g></g></g></g><g
       id="g258"><g
         id="g260"><g
           id="g266"><g
             id="g268"><path
               id="path276"
               style="fill:url(#linearGradient274);stroke:none"
               d="m 19.526,72.027 15.083,-4.95 c 0.243,0.707 0.493,1.421 0.744,2.147 v 0 l -16.101,5.283 c 0.059,-0.816 0.15,-1.644 0.274,-2.48" /></g></g></g></g><g
       id="g278"><g
         id="g280"><g
           id="g286"><g
             id="g288"><path
               id="path296"
               style="fill:url(#linearGradient294);stroke:none"
               d="m 22.46,61.735 c 0.327,-0.788 0.665,-1.547 1.005,-2.26 v 0 l 7.923,-2.603 c 0.18,0.678 0.39,1.41 0.62,2.191 v 0 l -9.512,3.123 z" /></g></g></g></g><g
       id="g298"><g
         clip-path="url(#clipPath304)"
         id="g300"><g
           transform="translate(100.9734,50.8245)"
           id="g306"><path
             id="path308"
             style="fill:#0f72a3;fill-opacity:1;fill-rule:nonzero;stroke:none"
             d="M 0,0 C -2.897,-2.395 -4.265,-16.224 6.434,-27.141 24.436,-45.509 105.096,-52.338 97.424,-49.178 61.523,-34.392 45.851,-37.083 24.798,-8.429 22.269,-4.986 12.842,10.617 0,0" /></g></g></g></g></svg>