<svg width="28" height="29" viewBox="0 0 28 29" fill="none" xmlns="http://www.w3.org/2000/svg">
<g clip-path="url(#clip0_98_3120)">
<path d="M16.3333 21.4032H11.6667C10.3798 21.4032 9.33333 20.3567 9.33333 19.0699V14.4032C9.33333 13.1164 10.3798 12.0699 11.6667 12.0699H16.3333C17.6202 12.0699 18.6667 13.1164 18.6667 14.4032V19.0699C18.6667 20.3567 17.6202 21.4032 16.3333 21.4032ZM11.6667 14.4032V19.0699H16.3357L16.3333 14.4032H11.6667ZM22.1667 28.4032H5.83333C2.61683 28.4032 0 25.7864 0 22.5699V11.7479C0 9.80537 0.961333 7.99703 2.57133 6.91203L10.7368 1.4007C12.719 0.0636992 15.281 0.0636992 17.2632 1.4007L25.4298 6.91203C27.0387 7.99703 28 9.8042 28 11.7479V22.5699C28 25.7864 25.3832 28.4032 22.1667 28.4032ZM14 2.73303C13.3187 2.73303 12.6373 2.9337 12.0423 3.3362L3.87567 8.84637C2.90967 9.49737 2.33333 10.5812 2.33333 11.7467V22.5687C2.33333 24.4984 3.90367 26.0687 5.83333 26.0687H22.1667C24.0963 26.0687 25.6667 24.4984 25.6667 22.5687V11.7479C25.6667 10.5824 25.0903 9.49736 24.1255 8.84753L15.9577 3.3362C15.3627 2.9337 14.6813 2.73303 14 2.73303Z" fill="white"/>
</g>
<defs>
<clipPath id="clip0_98_3120">
<rect width="28" height="28" fill="white" transform="translate(0 0.40332)"/>
</clipPath>
</defs>
</svg>
